<mxfile host="65bd71144e">
    <diagram id="fHHRIxtvxH6AeMiU-91O" name="Page-1">
        <mxGraphModel dx="3824" dy="1356" grid="0" gridSize="10" guides="1" tooltips="1" connect="1" arrows="1" fold="1" page="0" pageScale="1" pageWidth="850" pageHeight="1100" math="0" shadow="0">
            <root>
                <mxCell id="0"/>
                <mxCell id="1" parent="0"/>
                <mxCell id="2" value="&lt;&lt;View&gt;&gt;::HomePage" style="swimlane;fontStyle=1;align=center;verticalAlign=top;childLayout=stackLayout;horizontal=1;startSize=28;horizontalStack=0;resizeParent=1;resizeParentMax=0;resizeLast=0;collapsible=1;marginBottom=0;autosize=1;container=1;resizeWidth=1;resizeHeight=1;" parent="1" vertex="1">
                    <mxGeometry x="-440" y="60" width="280" height="140" as="geometry">
                        <mxRectangle x="-810" y="250" width="90" height="26" as="alternateBounds"/>
                    </mxGeometry>
                </mxCell>
                <mxCell id="3" value="+ products: Array" style="text;strokeColor=none;fillColor=none;align=left;verticalAlign=top;spacingLeft=4;spacingRight=4;overflow=hidden;rotatable=0;points=[[0,0.5],[1,0.5]];portConstraint=eastwest;" parent="2" vertex="1">
                    <mxGeometry y="28" width="280" height="26" as="geometry"/>
                </mxCell>
                <mxCell id="4" value="" style="line;strokeWidth=1;fillColor=none;align=left;verticalAlign=middle;spacingTop=-1;spacingLeft=3;spacingRight=3;rotatable=0;labelPosition=right;points=[];portConstraint=eastwest;" parent="2" vertex="1">
                    <mxGeometry y="54" width="280" height="8" as="geometry"/>
                </mxCell>
                <mxCell id="5" value="- setProducts(Array)&#10;" style="text;strokeColor=none;fillColor=none;align=left;verticalAlign=top;spacingLeft=4;spacingRight=4;overflow=hidden;rotatable=0;points=[[0,0.5],[1,0.5]];portConstraint=eastwest;whiteSpace=wrap;imageHeight=24;snapToPoint=0;autosize=0;" parent="2" vertex="1">
                    <mxGeometry y="62" width="280" height="26" as="geometry"/>
                </mxCell>
                <mxCell id="6" value="- getAllProducts()" style="text;strokeColor=none;fillColor=none;align=left;verticalAlign=top;spacingLeft=4;spacingRight=4;overflow=hidden;rotatable=0;points=[[0,0.5],[1,0.5]];portConstraint=eastwest;whiteSpace=wrap;imageHeight=24;snapToPoint=0;autosize=0;" parent="2" vertex="1">
                    <mxGeometry y="88" width="280" height="26" as="geometry"/>
                </mxCell>
                <mxCell id="29" value="- renderRecommendedProductCards()" style="text;strokeColor=none;fillColor=none;align=left;verticalAlign=top;spacingLeft=4;spacingRight=4;overflow=hidden;rotatable=0;points=[[0,0.5],[1,0.5]];portConstraint=eastwest;whiteSpace=wrap;imageHeight=24;snapToPoint=0;autosize=0;" parent="2" vertex="1">
                    <mxGeometry y="114" width="280" height="26" as="geometry"/>
                </mxCell>
                <mxCell id="7" value="&lt;&lt;View&gt;&gt;::SearchPage" style="swimlane;fontStyle=1;align=center;verticalAlign=top;childLayout=stackLayout;horizontal=1;startSize=28;horizontalStack=0;resizeParent=1;resizeParentMax=0;resizeLast=0;collapsible=1;marginBottom=0;autosize=1;container=1;resizeWidth=1;resizeHeight=1;" parent="1" vertex="1">
                    <mxGeometry x="-810" y="60" width="280" height="274" as="geometry">
                        <mxRectangle x="-810" y="250" width="90" height="26" as="alternateBounds"/>
                    </mxGeometry>
                </mxCell>
                <mxCell id="8" value="+ products: Array" style="text;strokeColor=none;fillColor=none;align=left;verticalAlign=top;spacingLeft=4;spacingRight=4;overflow=hidden;rotatable=0;points=[[0,0.5],[1,0.5]];portConstraint=eastwest;" parent="7" vertex="1">
                    <mxGeometry y="28" width="280" height="26" as="geometry"/>
                </mxCell>
                <mxCell id="13" value="+ page: Float" style="text;strokeColor=none;fillColor=none;align=left;verticalAlign=top;spacingLeft=4;spacingRight=4;overflow=hidden;rotatable=0;points=[[0,0.5],[1,0.5]];portConstraint=eastwest;" parent="7" vertex="1">
                    <mxGeometry y="54" width="280" height="26" as="geometry"/>
                </mxCell>
                <mxCell id="14" value="+ searchQuery: String" style="text;strokeColor=none;fillColor=none;align=left;verticalAlign=top;spacingLeft=4;spacingRight=4;overflow=hidden;rotatable=0;points=[[0,0.5],[1,0.5]];portConstraint=eastwest;" parent="7" vertex="1">
                    <mxGeometry y="80" width="280" height="26" as="geometry"/>
                </mxCell>
                <mxCell id="9" value="" style="line;strokeWidth=1;fillColor=none;align=left;verticalAlign=middle;spacingTop=-1;spacingLeft=3;spacingRight=3;rotatable=0;labelPosition=right;points=[];portConstraint=eastwest;" parent="7" vertex="1">
                    <mxGeometry y="106" width="280" height="8" as="geometry"/>
                </mxCell>
                <mxCell id="10" value="- setProducts(products)&#10;" style="text;strokeColor=none;fillColor=none;align=left;verticalAlign=top;spacingLeft=4;spacingRight=4;overflow=hidden;rotatable=0;points=[[0,0.5],[1,0.5]];portConstraint=eastwest;whiteSpace=wrap;imageHeight=24;snapToPoint=0;autosize=0;" parent="7" vertex="1">
                    <mxGeometry y="114" width="280" height="30" as="geometry"/>
                </mxCell>
                <mxCell id="11" value="- setPage(page)" style="text;strokeColor=none;fillColor=none;align=left;verticalAlign=top;spacingLeft=4;spacingRight=4;overflow=hidden;rotatable=0;points=[[0,0.5],[1,0.5]];portConstraint=eastwest;whiteSpace=wrap;imageHeight=24;snapToPoint=0;autosize=0;" parent="7" vertex="1">
                    <mxGeometry y="144" width="280" height="26" as="geometry"/>
                </mxCell>
                <mxCell id="15" value="- getAllProductsPaginated()" style="text;strokeColor=none;fillColor=none;align=left;verticalAlign=top;spacingLeft=4;spacingRight=4;overflow=hidden;rotatable=0;points=[[0,0.5],[1,0.5]];portConstraint=eastwest;whiteSpace=wrap;imageHeight=24;snapToPoint=0;autosize=0;" parent="7" vertex="1">
                    <mxGeometry y="170" width="280" height="26" as="geometry"/>
                </mxCell>
                <mxCell id="17" value="- getProductsByTitlePaginated(searchQuery)" style="text;strokeColor=none;fillColor=none;align=left;verticalAlign=top;spacingLeft=4;spacingRight=4;overflow=hidden;rotatable=0;points=[[0,0.5],[1,0.5]];portConstraint=eastwest;whiteSpace=wrap;imageHeight=24;snapToPoint=0;autosize=0;" parent="7" vertex="1">
                    <mxGeometry y="196" width="280" height="26" as="geometry"/>
                </mxCell>
                <mxCell id="30" value="- handleSearch(searchQuery)" style="text;strokeColor=none;fillColor=none;align=left;verticalAlign=top;spacingLeft=4;spacingRight=4;overflow=hidden;rotatable=0;points=[[0,0.5],[1,0.5]];portConstraint=eastwest;whiteSpace=wrap;imageHeight=24;snapToPoint=0;autosize=0;" parent="7" vertex="1">
                    <mxGeometry y="222" width="280" height="26" as="geometry"/>
                </mxCell>
                <mxCell id="31" value="- renderItemCards()" style="text;strokeColor=none;fillColor=none;align=left;verticalAlign=top;spacingLeft=4;spacingRight=4;overflow=hidden;rotatable=0;points=[[0,0.5],[1,0.5]];portConstraint=eastwest;whiteSpace=wrap;imageHeight=24;snapToPoint=0;autosize=0;" parent="7" vertex="1">
                    <mxGeometry y="248" width="280" height="26" as="geometry"/>
                </mxCell>
                <mxCell id="18" value="&lt;&lt;View&gt;&gt;::ProductManagerPage" style="swimlane;fontStyle=1;align=center;verticalAlign=top;childLayout=stackLayout;horizontal=1;startSize=28;horizontalStack=0;resizeParent=1;resizeParentMax=0;resizeLast=0;collapsible=1;marginBottom=0;autosize=1;container=1;resizeWidth=1;resizeHeight=1;" parent="1" vertex="1">
                    <mxGeometry x="-810" y="374" width="280" height="426" as="geometry">
                        <mxRectangle x="-810" y="250" width="90" height="26" as="alternateBounds"/>
                    </mxGeometry>
                </mxCell>
                <mxCell id="19" value="+ products: Array" style="text;strokeColor=none;fillColor=none;align=left;verticalAlign=top;spacingLeft=4;spacingRight=4;overflow=hidden;rotatable=0;points=[[0,0.5],[1,0.5]];portConstraint=eastwest;" parent="18" vertex="1">
                    <mxGeometry y="28" width="280" height="26" as="geometry"/>
                </mxCell>
                <mxCell id="20" value="+ openModal: Boolean" style="text;strokeColor=none;fillColor=none;align=left;verticalAlign=top;spacingLeft=4;spacingRight=4;overflow=hidden;rotatable=0;points=[[0,0.5],[1,0.5]];portConstraint=eastwest;" parent="18" vertex="1">
                    <mxGeometry y="54" width="280" height="26" as="geometry"/>
                </mxCell>
                <mxCell id="21" value="+ openSnackbar: Boolean" style="text;strokeColor=none;fillColor=none;align=left;verticalAlign=top;spacingLeft=4;spacingRight=4;overflow=hidden;rotatable=0;points=[[0,0.5],[1,0.5]];portConstraint=eastwest;" parent="18" vertex="1">
                    <mxGeometry y="80" width="280" height="26" as="geometry"/>
                </mxCell>
                <mxCell id="28" value="+ snackbarType: Boolean" style="text;strokeColor=none;fillColor=none;align=left;verticalAlign=top;spacingLeft=4;spacingRight=4;overflow=hidden;rotatable=0;points=[[0,0.5],[1,0.5]];portConstraint=eastwest;" parent="18" vertex="1">
                    <mxGeometry y="106" width="280" height="26" as="geometry"/>
                </mxCell>
                <mxCell id="22" value="" style="line;strokeWidth=1;fillColor=none;align=left;verticalAlign=middle;spacingTop=-1;spacingLeft=3;spacingRight=3;rotatable=0;labelPosition=right;points=[];portConstraint=eastwest;" parent="18" vertex="1">
                    <mxGeometry y="132" width="280" height="8" as="geometry"/>
                </mxCell>
                <mxCell id="23" value="- setProducts(products)&#10;" style="text;strokeColor=none;fillColor=none;align=left;verticalAlign=top;spacingLeft=4;spacingRight=4;overflow=hidden;rotatable=0;points=[[0,0.5],[1,0.5]];portConstraint=eastwest;whiteSpace=wrap;imageHeight=24;snapToPoint=0;autosize=0;" parent="18" vertex="1">
                    <mxGeometry y="140" width="280" height="30" as="geometry"/>
                </mxCell>
                <mxCell id="24" value="- setOpenModal(openModal)" style="text;strokeColor=none;fillColor=none;align=left;verticalAlign=top;spacingLeft=4;spacingRight=4;overflow=hidden;rotatable=0;points=[[0,0.5],[1,0.5]];portConstraint=eastwest;whiteSpace=wrap;imageHeight=24;snapToPoint=0;autosize=0;" parent="18" vertex="1">
                    <mxGeometry y="170" width="280" height="26" as="geometry"/>
                </mxCell>
                <mxCell id="25" value="- setOpenSnackbar(openSnackbar)" style="text;strokeColor=none;fillColor=none;align=left;verticalAlign=top;spacingLeft=4;spacingRight=4;overflow=hidden;rotatable=0;points=[[0,0.5],[1,0.5]];portConstraint=eastwest;whiteSpace=wrap;imageHeight=24;snapToPoint=0;autosize=0;" parent="18" vertex="1">
                    <mxGeometry y="196" width="280" height="26" as="geometry"/>
                </mxCell>
                <mxCell id="26" value="- getProductsByUserId(userId)" style="text;strokeColor=none;fillColor=none;align=left;verticalAlign=top;spacingLeft=4;spacingRight=4;overflow=hidden;rotatable=0;points=[[0,0.5],[1,0.5]];portConstraint=eastwest;whiteSpace=wrap;imageHeight=24;snapToPoint=0;autosize=0;" parent="18" vertex="1">
                    <mxGeometry y="222" width="280" height="26" as="geometry"/>
                </mxCell>
                <mxCell id="35" value="- createProduct(productData, image)" style="text;strokeColor=none;fillColor=none;align=left;verticalAlign=top;spacingLeft=4;spacingRight=4;overflow=hidden;rotatable=0;points=[[0,0.5],[1,0.5]];portConstraint=eastwest;whiteSpace=wrap;imageHeight=24;snapToPoint=0;autosize=0;" parent="18" vertex="1">
                    <mxGeometry y="248" width="280" height="26" as="geometry"/>
                </mxCell>
                <mxCell id="36" value="- deleteProduct(productId)" style="text;strokeColor=none;fillColor=none;align=left;verticalAlign=top;spacingLeft=4;spacingRight=4;overflow=hidden;rotatable=0;points=[[0,0.5],[1,0.5]];portConstraint=eastwest;whiteSpace=wrap;imageHeight=24;snapToPoint=0;autosize=0;" parent="18" vertex="1">
                    <mxGeometry y="274" width="280" height="26" as="geometry"/>
                </mxCell>
                <mxCell id="32" value="- renderSellerItemCards()" style="text;strokeColor=none;fillColor=none;align=left;verticalAlign=top;spacingLeft=4;spacingRight=4;overflow=hidden;rotatable=0;points=[[0,0.5],[1,0.5]];portConstraint=eastwest;whiteSpace=wrap;imageHeight=24;snapToPoint=0;autosize=0;" parent="18" vertex="1">
                    <mxGeometry y="300" width="280" height="26" as="geometry"/>
                </mxCell>
                <mxCell id="33" value="- handleAddNewProduct(title, diameter, witdh, offset, price, image)" style="text;strokeColor=none;fillColor=none;align=left;verticalAlign=top;spacingLeft=4;spacingRight=4;overflow=hidden;rotatable=0;points=[[0,0.5],[1,0.5]];portConstraint=eastwest;whiteSpace=wrap;imageHeight=24;snapToPoint=0;autosize=0;" parent="18" vertex="1">
                    <mxGeometry y="326" width="280" height="48" as="geometry"/>
                </mxCell>
                <mxCell id="34" value="- handleDeleteProduct(productId, title)" style="text;strokeColor=none;fillColor=none;align=left;verticalAlign=top;spacingLeft=4;spacingRight=4;overflow=hidden;rotatable=0;points=[[0,0.5],[1,0.5]];portConstraint=eastwest;whiteSpace=wrap;imageHeight=24;snapToPoint=0;autosize=0;" parent="18" vertex="1">
                    <mxGeometry y="374" width="280" height="26" as="geometry"/>
                </mxCell>
                <mxCell id="37" value="- handleCloseModal()" style="text;strokeColor=none;fillColor=none;align=left;verticalAlign=top;spacingLeft=4;spacingRight=4;overflow=hidden;rotatable=0;points=[[0,0.5],[1,0.5]];portConstraint=eastwest;whiteSpace=wrap;imageHeight=24;snapToPoint=0;autosize=0;" parent="18" vertex="1">
                    <mxGeometry y="400" width="280" height="26" as="geometry"/>
                </mxCell>
                <mxCell id="38" value="&lt;&lt;View&gt;&gt;::Login" style="swimlane;fontStyle=1;align=center;verticalAlign=top;childLayout=stackLayout;horizontal=1;startSize=28;horizontalStack=0;resizeParent=1;resizeParentMax=0;resizeLast=0;collapsible=1;marginBottom=0;autosize=1;container=1;resizeWidth=1;resizeHeight=1;" parent="1" vertex="1">
                    <mxGeometry x="-440" y="892" width="280" height="222" as="geometry">
                        <mxRectangle x="-810" y="250" width="90" height="26" as="alternateBounds"/>
                    </mxGeometry>
                </mxCell>
                <mxCell id="39" value="+ email: String" style="text;strokeColor=none;fillColor=none;align=left;verticalAlign=top;spacingLeft=4;spacingRight=4;overflow=hidden;rotatable=0;points=[[0,0.5],[1,0.5]];portConstraint=eastwest;" parent="38" vertex="1">
                    <mxGeometry y="28" width="280" height="26" as="geometry"/>
                </mxCell>
                <mxCell id="40" value="+ password: String" style="text;strokeColor=none;fillColor=none;align=left;verticalAlign=top;spacingLeft=4;spacingRight=4;overflow=hidden;rotatable=0;points=[[0,0.5],[1,0.5]];portConstraint=eastwest;" parent="38" vertex="1">
                    <mxGeometry y="54" width="280" height="26" as="geometry"/>
                </mxCell>
                <mxCell id="44" value="" style="line;strokeWidth=1;fillColor=none;align=left;verticalAlign=middle;spacingTop=-1;spacingLeft=3;spacingRight=3;rotatable=0;labelPosition=right;points=[];portConstraint=eastwest;" parent="38" vertex="1">
                    <mxGeometry y="80" width="280" height="8" as="geometry"/>
                </mxCell>
                <mxCell id="45" value="- setEmail(email)&#10;" style="text;strokeColor=none;fillColor=none;align=left;verticalAlign=top;spacingLeft=4;spacingRight=4;overflow=hidden;rotatable=0;points=[[0,0.5],[1,0.5]];portConstraint=eastwest;whiteSpace=wrap;imageHeight=24;snapToPoint=0;autosize=0;" parent="38" vertex="1">
                    <mxGeometry y="88" width="280" height="30" as="geometry"/>
                </mxCell>
                <mxCell id="46" value="- setPassword(password)" style="text;strokeColor=none;fillColor=none;align=left;verticalAlign=top;spacingLeft=4;spacingRight=4;overflow=hidden;rotatable=0;points=[[0,0.5],[1,0.5]];portConstraint=eastwest;whiteSpace=wrap;imageHeight=24;snapToPoint=0;autosize=0;" parent="38" vertex="1">
                    <mxGeometry y="118" width="280" height="26" as="geometry"/>
                </mxCell>
                <mxCell id="47" value="- signIn(email, password)" style="text;strokeColor=none;fillColor=none;align=left;verticalAlign=top;spacingLeft=4;spacingRight=4;overflow=hidden;rotatable=0;points=[[0,0.5],[1,0.5]];portConstraint=eastwest;whiteSpace=wrap;imageHeight=24;snapToPoint=0;autosize=0;" parent="38" vertex="1">
                    <mxGeometry y="144" width="280" height="26" as="geometry"/>
                </mxCell>
                <mxCell id="48" value="- fetchCurrentUser()" style="text;strokeColor=none;fillColor=none;align=left;verticalAlign=top;spacingLeft=4;spacingRight=4;overflow=hidden;rotatable=0;points=[[0,0.5],[1,0.5]];portConstraint=eastwest;whiteSpace=wrap;imageHeight=24;snapToPoint=0;autosize=0;" parent="38" vertex="1">
                    <mxGeometry y="170" width="280" height="26" as="geometry"/>
                </mxCell>
                <mxCell id="49" value="- handleAuthentication()" style="text;strokeColor=none;fillColor=none;align=left;verticalAlign=top;spacingLeft=4;spacingRight=4;overflow=hidden;rotatable=0;points=[[0,0.5],[1,0.5]];portConstraint=eastwest;whiteSpace=wrap;imageHeight=24;snapToPoint=0;autosize=0;" parent="38" vertex="1">
                    <mxGeometry y="196" width="280" height="26" as="geometry"/>
                </mxCell>
                <mxCell id="55" value="&lt;&lt;View&gt;&gt;::Register" style="swimlane;fontStyle=1;align=center;verticalAlign=top;childLayout=stackLayout;horizontal=1;startSize=28;horizontalStack=0;resizeParent=1;resizeParentMax=0;resizeLast=0;collapsible=1;marginBottom=0;autosize=1;container=1;resizeWidth=1;resizeHeight=1;" parent="1" vertex="1">
                    <mxGeometry x="-80" y="1010" width="210" height="326" as="geometry">
                        <mxRectangle x="-810" y="250" width="90" height="26" as="alternateBounds"/>
                    </mxGeometry>
                </mxCell>
                <mxCell id="56" value="+ email: String" style="text;strokeColor=none;fillColor=none;align=left;verticalAlign=top;spacingLeft=4;spacingRight=4;overflow=hidden;rotatable=0;points=[[0,0.5],[1,0.5]];portConstraint=eastwest;" parent="55" vertex="1">
                    <mxGeometry y="28" width="210" height="26" as="geometry"/>
                </mxCell>
                <mxCell id="57" value="+ password: String" style="text;strokeColor=none;fillColor=none;align=left;verticalAlign=top;spacingLeft=4;spacingRight=4;overflow=hidden;rotatable=0;points=[[0,0.5],[1,0.5]];portConstraint=eastwest;" parent="55" vertex="1">
                    <mxGeometry y="54" width="210" height="26" as="geometry"/>
                </mxCell>
                <mxCell id="64" value="+ username: String" style="text;strokeColor=none;fillColor=none;align=left;verticalAlign=top;spacingLeft=4;spacingRight=4;overflow=hidden;rotatable=0;points=[[0,0.5],[1,0.5]];portConstraint=eastwest;" parent="55" vertex="1">
                    <mxGeometry y="80" width="210" height="26" as="geometry"/>
                </mxCell>
                <mxCell id="65" value="+ phone: String" style="text;strokeColor=none;fillColor=none;align=left;verticalAlign=top;spacingLeft=4;spacingRight=4;overflow=hidden;rotatable=0;points=[[0,0.5],[1,0.5]];portConstraint=eastwest;" parent="55" vertex="1">
                    <mxGeometry y="106" width="210" height="26" as="geometry"/>
                </mxCell>
                <mxCell id="58" value="" style="line;strokeWidth=1;fillColor=none;align=left;verticalAlign=middle;spacingTop=-1;spacingLeft=3;spacingRight=3;rotatable=0;labelPosition=right;points=[];portConstraint=eastwest;" parent="55" vertex="1">
                    <mxGeometry y="132" width="210" height="8" as="geometry"/>
                </mxCell>
                <mxCell id="59" value="- setEmail(email)&#10;" style="text;strokeColor=none;fillColor=none;align=left;verticalAlign=top;spacingLeft=4;spacingRight=4;overflow=hidden;rotatable=0;points=[[0,0.5],[1,0.5]];portConstraint=eastwest;whiteSpace=wrap;imageHeight=24;snapToPoint=0;autosize=0;" parent="55" vertex="1">
                    <mxGeometry y="140" width="210" height="30" as="geometry"/>
                </mxCell>
                <mxCell id="60" value="- setPassword(password)" style="text;strokeColor=none;fillColor=none;align=left;verticalAlign=top;spacingLeft=4;spacingRight=4;overflow=hidden;rotatable=0;points=[[0,0.5],[1,0.5]];portConstraint=eastwest;whiteSpace=wrap;imageHeight=24;snapToPoint=0;autosize=0;" parent="55" vertex="1">
                    <mxGeometry y="170" width="210" height="26" as="geometry"/>
                </mxCell>
                <mxCell id="66" value="- setUsername(username)" style="text;strokeColor=none;fillColor=none;align=left;verticalAlign=top;spacingLeft=4;spacingRight=4;overflow=hidden;rotatable=0;points=[[0,0.5],[1,0.5]];portConstraint=eastwest;whiteSpace=wrap;imageHeight=24;snapToPoint=0;autosize=0;" parent="55" vertex="1">
                    <mxGeometry y="196" width="210" height="26" as="geometry"/>
                </mxCell>
                <mxCell id="67" value="- setPhone(phone)" style="text;strokeColor=none;fillColor=none;align=left;verticalAlign=top;spacingLeft=4;spacingRight=4;overflow=hidden;rotatable=0;points=[[0,0.5],[1,0.5]];portConstraint=eastwest;whiteSpace=wrap;imageHeight=24;snapToPoint=0;autosize=0;" parent="55" vertex="1">
                    <mxGeometry y="222" width="210" height="26" as="geometry"/>
                </mxCell>
                <mxCell id="61" value="- signUp(email, password, userData)" style="text;strokeColor=none;fillColor=none;align=left;verticalAlign=top;spacingLeft=4;spacingRight=4;overflow=hidden;rotatable=0;points=[[0,0.5],[1,0.5]];portConstraint=eastwest;whiteSpace=wrap;imageHeight=24;snapToPoint=0;autosize=0;" parent="55" vertex="1">
                    <mxGeometry y="248" width="210" height="26" as="geometry"/>
                </mxCell>
                <mxCell id="62" value="- handleRegister()" style="text;strokeColor=none;fillColor=none;align=left;verticalAlign=top;spacingLeft=4;spacingRight=4;overflow=hidden;rotatable=0;points=[[0,0.5],[1,0.5]];portConstraint=eastwest;whiteSpace=wrap;imageHeight=24;snapToPoint=0;autosize=0;" parent="55" vertex="1">
                    <mxGeometry y="274" width="210" height="26" as="geometry"/>
                </mxCell>
                <mxCell id="63" value="- handleAuthentication()" style="text;strokeColor=none;fillColor=none;align=left;verticalAlign=top;spacingLeft=4;spacingRight=4;overflow=hidden;rotatable=0;points=[[0,0.5],[1,0.5]];portConstraint=eastwest;whiteSpace=wrap;imageHeight=24;snapToPoint=0;autosize=0;" parent="55" vertex="1">
                    <mxGeometry y="300" width="210" height="26" as="geometry"/>
                </mxCell>
                <mxCell id="68" value="&lt;&lt;Controller&gt;&gt;::Service" style="swimlane;fontStyle=1;align=center;verticalAlign=top;childLayout=stackLayout;horizontal=1;startSize=28;horizontalStack=0;resizeParent=1;resizeParentMax=0;resizeLast=0;collapsible=1;marginBottom=0;autosize=1;container=1;resizeWidth=1;resizeHeight=1;" parent="1" vertex="1">
                    <mxGeometry x="-440" y="270" width="280" height="550" as="geometry">
                        <mxRectangle x="-810" y="250" width="90" height="26" as="alternateBounds"/>
                    </mxGeometry>
                </mxCell>
                <mxCell id="74" value="" style="line;strokeWidth=1;fillColor=none;align=left;verticalAlign=middle;spacingTop=-1;spacingLeft=3;spacingRight=3;rotatable=0;labelPosition=right;points=[];portConstraint=eastwest;" parent="68" vertex="1">
                    <mxGeometry y="28" width="280" height="8" as="geometry"/>
                </mxCell>
                <mxCell id="75" value="- signUp(email, password, userData)&#10;" style="text;strokeColor=none;fillColor=none;align=left;verticalAlign=top;spacingLeft=4;spacingRight=4;overflow=hidden;rotatable=0;points=[[0,0.5],[1,0.5]];portConstraint=eastwest;whiteSpace=wrap;imageHeight=24;snapToPoint=0;autosize=0;" parent="68" vertex="1">
                    <mxGeometry y="36" width="280" height="30" as="geometry"/>
                </mxCell>
                <mxCell id="76" value="- signIn(email, password)" style="text;strokeColor=none;fillColor=none;align=left;verticalAlign=top;spacingLeft=4;spacingRight=4;overflow=hidden;rotatable=0;points=[[0,0.5],[1,0.5]];portConstraint=eastwest;whiteSpace=wrap;imageHeight=24;snapToPoint=0;autosize=0;" parent="68" vertex="1">
                    <mxGeometry y="66" width="280" height="26" as="geometry"/>
                </mxCell>
                <mxCell id="77" value="- signOut()" style="text;strokeColor=none;fillColor=none;align=left;verticalAlign=top;spacingLeft=4;spacingRight=4;overflow=hidden;rotatable=0;points=[[0,0.5],[1,0.5]];portConstraint=eastwest;whiteSpace=wrap;imageHeight=24;snapToPoint=0;autosize=0;" parent="68" vertex="1">
                    <mxGeometry y="92" width="280" height="26" as="geometry"/>
                </mxCell>
                <mxCell id="78" value="- fetchCurrentUser()" style="text;strokeColor=none;fillColor=none;align=left;verticalAlign=top;spacingLeft=4;spacingRight=4;overflow=hidden;rotatable=0;points=[[0,0.5],[1,0.5]];portConstraint=eastwest;whiteSpace=wrap;imageHeight=24;snapToPoint=0;autosize=0;" parent="68" vertex="1">
                    <mxGeometry y="118" width="280" height="26" as="geometry"/>
                </mxCell>
                <mxCell id="79" value="- getUserByEmail(email)" style="text;strokeColor=none;fillColor=none;align=left;verticalAlign=top;spacingLeft=4;spacingRight=4;overflow=hidden;rotatable=0;points=[[0,0.5],[1,0.5]];portConstraint=eastwest;whiteSpace=wrap;imageHeight=24;snapToPoint=0;autosize=0;" parent="68" vertex="1">
                    <mxGeometry y="144" width="280" height="26" as="geometry"/>
                </mxCell>
                <mxCell id="80" value="- getUserById(userId)" style="text;strokeColor=none;fillColor=none;align=left;verticalAlign=top;spacingLeft=4;spacingRight=4;overflow=hidden;rotatable=0;points=[[0,0.5],[1,0.5]];portConstraint=eastwest;whiteSpace=wrap;imageHeight=24;snapToPoint=0;autosize=0;" parent="68" vertex="1">
                    <mxGeometry y="170" width="280" height="26" as="geometry"/>
                </mxCell>
                <mxCell id="81" value="- createUser(userData)" style="text;strokeColor=none;fillColor=none;align=left;verticalAlign=top;spacingLeft=4;spacingRight=4;overflow=hidden;rotatable=0;points=[[0,0.5],[1,0.5]];portConstraint=eastwest;whiteSpace=wrap;imageHeight=24;snapToPoint=0;autosize=0;" parent="68" vertex="1">
                    <mxGeometry y="196" width="280" height="26" as="geometry"/>
                </mxCell>
                <mxCell id="82" value="- getAllProducts()" style="text;strokeColor=none;fillColor=none;align=left;verticalAlign=top;spacingLeft=4;spacingRight=4;overflow=hidden;rotatable=0;points=[[0,0.5],[1,0.5]];portConstraint=eastwest;whiteSpace=wrap;imageHeight=24;snapToPoint=0;autosize=0;" parent="68" vertex="1">
                    <mxGeometry y="222" width="280" height="26" as="geometry"/>
                </mxCell>
                <mxCell id="83" value="- getProductsByUserId(userId)" style="text;strokeColor=none;fillColor=none;align=left;verticalAlign=top;spacingLeft=4;spacingRight=4;overflow=hidden;rotatable=0;points=[[0,0.5],[1,0.5]];portConstraint=eastwest;whiteSpace=wrap;imageHeight=24;snapToPoint=0;autosize=0;" parent="68" vertex="1">
                    <mxGeometry y="248" width="280" height="26" as="geometry"/>
                </mxCell>
                <mxCell id="84" value="- getProductsByTitle(title)" style="text;strokeColor=none;fillColor=none;align=left;verticalAlign=top;spacingLeft=4;spacingRight=4;overflow=hidden;rotatable=0;points=[[0,0.5],[1,0.5]];portConstraint=eastwest;whiteSpace=wrap;imageHeight=24;snapToPoint=0;autosize=0;" parent="68" vertex="1">
                    <mxGeometry y="274" width="280" height="26" as="geometry"/>
                </mxCell>
                <mxCell id="85" value="- getProductById(productId)" style="text;strokeColor=none;fillColor=none;align=left;verticalAlign=top;spacingLeft=4;spacingRight=4;overflow=hidden;rotatable=0;points=[[0,0.5],[1,0.5]];portConstraint=eastwest;whiteSpace=wrap;imageHeight=24;snapToPoint=0;autosize=0;" parent="68" vertex="1">
                    <mxGeometry y="300" width="280" height="26" as="geometry"/>
                </mxCell>
                <mxCell id="86" value="- getAllProductsPaginated()" style="text;strokeColor=none;fillColor=none;align=left;verticalAlign=top;spacingLeft=4;spacingRight=4;overflow=hidden;rotatable=0;points=[[0,0.5],[1,0.5]];portConstraint=eastwest;whiteSpace=wrap;imageHeight=24;snapToPoint=0;autosize=0;" parent="68" vertex="1">
                    <mxGeometry y="326" width="280" height="26" as="geometry"/>
                </mxCell>
                <mxCell id="87" value="- getProductsByTitlePaginated(searchString)" style="text;strokeColor=none;fillColor=none;align=left;verticalAlign=top;spacingLeft=4;spacingRight=4;overflow=hidden;rotatable=0;points=[[0,0.5],[1,0.5]];portConstraint=eastwest;whiteSpace=wrap;imageHeight=24;snapToPoint=0;autosize=0;" parent="68" vertex="1">
                    <mxGeometry y="352" width="280" height="26" as="geometry"/>
                </mxCell>
                <mxCell id="88" value="- createProduct(productData, image)" style="text;strokeColor=none;fillColor=none;align=left;verticalAlign=top;spacingLeft=4;spacingRight=4;overflow=hidden;rotatable=0;points=[[0,0.5],[1,0.5]];portConstraint=eastwest;whiteSpace=wrap;imageHeight=24;snapToPoint=0;autosize=0;" parent="68" vertex="1">
                    <mxGeometry y="378" width="280" height="26" as="geometry"/>
                </mxCell>
                <mxCell id="89" value="- deleteProductById(productId)" style="text;strokeColor=none;fillColor=none;align=left;verticalAlign=top;spacingLeft=4;spacingRight=4;overflow=hidden;rotatable=0;points=[[0,0.5],[1,0.5]];portConstraint=eastwest;whiteSpace=wrap;imageHeight=24;snapToPoint=0;autosize=0;" parent="68" vertex="1">
                    <mxGeometry y="404" width="280" height="26" as="geometry"/>
                </mxCell>
                <mxCell id="90" value="- uploadImage(file, product)" style="text;strokeColor=none;fillColor=none;align=left;verticalAlign=top;spacingLeft=4;spacingRight=4;overflow=hidden;rotatable=0;points=[[0,0.5],[1,0.5]];portConstraint=eastwest;whiteSpace=wrap;imageHeight=24;snapToPoint=0;autosize=0;" parent="68" vertex="1">
                    <mxGeometry y="430" width="280" height="26" as="geometry"/>
                </mxCell>
                <mxCell id="91" value="- getImageByItemId(itemId)" style="text;strokeColor=none;fillColor=none;align=left;verticalAlign=top;spacingLeft=4;spacingRight=4;overflow=hidden;rotatable=0;points=[[0,0.5],[1,0.5]];portConstraint=eastwest;whiteSpace=wrap;imageHeight=24;snapToPoint=0;autosize=0;" parent="68" vertex="1">
                    <mxGeometry y="456" width="280" height="26" as="geometry"/>
                </mxCell>
                <mxCell id="125" value="- getChatsByUserId(userId)" style="text;strokeColor=none;fillColor=none;align=left;verticalAlign=top;spacingLeft=4;spacingRight=4;overflow=hidden;rotatable=0;points=[[0,0.5],[1,0.5]];portConstraint=eastwest;whiteSpace=wrap;imageHeight=24;snapToPoint=0;autosize=0;" parent="68" vertex="1">
                    <mxGeometry y="482" width="280" height="26" as="geometry"/>
                </mxCell>
                <mxCell id="162" value="- sendChat(customerId, sellerId, itemId, message, time)" style="text;strokeColor=none;fillColor=none;align=left;verticalAlign=top;spacingLeft=4;spacingRight=4;overflow=hidden;rotatable=0;points=[[0,0.5],[1,0.5]];portConstraint=eastwest;whiteSpace=wrap;imageHeight=24;snapToPoint=0;autosize=0;" parent="68" vertex="1">
                    <mxGeometry y="508" width="280" height="42" as="geometry"/>
                </mxCell>
                <mxCell id="94" value="&lt;&lt;Model&gt;&gt;::Products" style="swimlane;fontStyle=1;align=center;verticalAlign=top;childLayout=stackLayout;horizontal=1;startSize=28;horizontalStack=0;resizeParent=1;resizeParentMax=0;resizeLast=0;collapsible=1;marginBottom=0;autosize=1;container=1;resizeWidth=1;resizeHeight=1;" parent="1" vertex="1">
                    <mxGeometry x="-80" y="60" width="210" height="400" as="geometry">
                        <mxRectangle x="-810" y="250" width="90" height="26" as="alternateBounds"/>
                    </mxGeometry>
                </mxCell>
                <mxCell id="95" value="+ productId: String" style="text;strokeColor=none;fillColor=none;align=left;verticalAlign=top;spacingLeft=4;spacingRight=4;overflow=hidden;rotatable=0;points=[[0,0.5],[1,0.5]];portConstraint=eastwest;" parent="94" vertex="1">
                    <mxGeometry y="28" width="210" height="26" as="geometry"/>
                </mxCell>
                <mxCell id="102" value="+ diameter: Float" style="text;strokeColor=none;fillColor=none;align=left;verticalAlign=top;spacingLeft=4;spacingRight=4;overflow=hidden;rotatable=0;points=[[0,0.5],[1,0.5]];portConstraint=eastwest;" parent="94" vertex="1">
                    <mxGeometry y="54" width="210" height="26" as="geometry"/>
                </mxCell>
                <mxCell id="101" value="+ filePath: String" style="text;strokeColor=none;fillColor=none;align=left;verticalAlign=top;spacingLeft=4;spacingRight=4;overflow=hidden;rotatable=0;points=[[0,0.5],[1,0.5]];portConstraint=eastwest;" parent="94" vertex="1">
                    <mxGeometry y="80" width="210" height="26" as="geometry"/>
                </mxCell>
                <mxCell id="103" value="+ offset: Float" style="text;strokeColor=none;fillColor=none;align=left;verticalAlign=top;spacingLeft=4;spacingRight=4;overflow=hidden;rotatable=0;points=[[0,0.5],[1,0.5]];portConstraint=eastwest;" parent="94" vertex="1">
                    <mxGeometry y="106" width="210" height="26" as="geometry"/>
                </mxCell>
                <mxCell id="104" value="+ price: Float" style="text;strokeColor=none;fillColor=none;align=left;verticalAlign=top;spacingLeft=4;spacingRight=4;overflow=hidden;rotatable=0;points=[[0,0.5],[1,0.5]];portConstraint=eastwest;" parent="94" vertex="1">
                    <mxGeometry y="132" width="210" height="26" as="geometry"/>
                </mxCell>
                <mxCell id="105" value="+ sellerId: String" style="text;strokeColor=none;fillColor=none;align=left;verticalAlign=top;spacingLeft=4;spacingRight=4;overflow=hidden;rotatable=0;points=[[0,0.5],[1,0.5]];portConstraint=eastwest;" parent="94" vertex="1">
                    <mxGeometry y="158" width="210" height="26" as="geometry"/>
                </mxCell>
                <mxCell id="106" value="+ title: String" style="text;strokeColor=none;fillColor=none;align=left;verticalAlign=top;spacingLeft=4;spacingRight=4;overflow=hidden;rotatable=0;points=[[0,0.5],[1,0.5]];portConstraint=eastwest;" parent="94" vertex="1">
                    <mxGeometry y="184" width="210" height="26" as="geometry"/>
                </mxCell>
                <mxCell id="107" value="+ width: Float" style="text;strokeColor=none;fillColor=none;align=left;verticalAlign=top;spacingLeft=4;spacingRight=4;overflow=hidden;rotatable=0;points=[[0,0.5],[1,0.5]];portConstraint=eastwest;" parent="94" vertex="1">
                    <mxGeometry y="210" width="210" height="26" as="geometry"/>
                </mxCell>
                <mxCell id="145" value="+ pcd: Float" style="text;strokeColor=none;fillColor=none;align=left;verticalAlign=top;spacingLeft=4;spacingRight=4;overflow=hidden;rotatable=0;points=[[0,0.5],[1,0.5]];portConstraint=eastwest;" parent="94" vertex="1">
                    <mxGeometry y="236" width="210" height="26" as="geometry"/>
                </mxCell>
                <mxCell id="146" value="+ tireDiameter: Float" style="text;strokeColor=none;fillColor=none;align=left;verticalAlign=top;spacingLeft=4;spacingRight=4;overflow=hidden;rotatable=0;points=[[0,0.5],[1,0.5]];portConstraint=eastwest;" parent="94" vertex="1">
                    <mxGeometry y="262" width="210" height="26" as="geometry"/>
                </mxCell>
                <mxCell id="147" value="+ tireWidth: Float" style="text;strokeColor=none;fillColor=none;align=left;verticalAlign=top;spacingLeft=4;spacingRight=4;overflow=hidden;rotatable=0;points=[[0,0.5],[1,0.5]];portConstraint=eastwest;" parent="94" vertex="1">
                    <mxGeometry y="288" width="210" height="26" as="geometry"/>
                </mxCell>
                <mxCell id="148" value="+ tireProfile: Float" style="text;strokeColor=none;fillColor=none;align=left;verticalAlign=top;spacingLeft=4;spacingRight=4;overflow=hidden;rotatable=0;points=[[0,0.5],[1,0.5]];portConstraint=eastwest;" parent="94" vertex="1">
                    <mxGeometry y="314" width="210" height="26" as="geometry"/>
                </mxCell>
                <mxCell id="149" value="+ carType: string" style="text;strokeColor=none;fillColor=none;align=left;verticalAlign=top;spacingLeft=4;spacingRight=4;overflow=hidden;rotatable=0;points=[[0,0.5],[1,0.5]];portConstraint=eastwest;" parent="94" vertex="1">
                    <mxGeometry y="340" width="210" height="26" as="geometry"/>
                </mxCell>
                <mxCell id="154" value="+ description: string" style="text;strokeColor=none;fillColor=none;align=left;verticalAlign=top;spacingLeft=4;spacingRight=4;overflow=hidden;rotatable=0;points=[[0,0.5],[1,0.5]];portConstraint=eastwest;" parent="94" vertex="1">
                    <mxGeometry y="366" width="210" height="26" as="geometry"/>
                </mxCell>
                <mxCell id="96" value="" style="line;strokeWidth=1;fillColor=none;align=left;verticalAlign=middle;spacingTop=-1;spacingLeft=3;spacingRight=3;rotatable=0;labelPosition=right;points=[];portConstraint=eastwest;" parent="94" vertex="1">
                    <mxGeometry y="392" width="210" height="8" as="geometry"/>
                </mxCell>
                <mxCell id="108" value="&lt;&lt;Model&gt;&gt;::Users" style="swimlane;fontStyle=1;align=center;verticalAlign=top;childLayout=stackLayout;horizontal=1;startSize=28;horizontalStack=0;resizeParent=1;resizeParentMax=0;resizeLast=0;collapsible=1;marginBottom=0;autosize=1;container=1;resizeWidth=1;resizeHeight=1;" parent="1" vertex="1">
                    <mxGeometry x="-80" y="544" width="210" height="140" as="geometry">
                        <mxRectangle x="-810" y="250" width="90" height="26" as="alternateBounds"/>
                    </mxGeometry>
                </mxCell>
                <mxCell id="112" value="+ userId: String" style="text;strokeColor=none;fillColor=none;align=left;verticalAlign=top;spacingLeft=4;spacingRight=4;overflow=hidden;rotatable=0;points=[[0,0.5],[1,0.5]];portConstraint=eastwest;" parent="108" vertex="1">
                    <mxGeometry y="28" width="210" height="26" as="geometry"/>
                </mxCell>
                <mxCell id="109" value="+ email: String" style="text;strokeColor=none;fillColor=none;align=left;verticalAlign=top;spacingLeft=4;spacingRight=4;overflow=hidden;rotatable=0;points=[[0,0.5],[1,0.5]];portConstraint=eastwest;" parent="108" vertex="1">
                    <mxGeometry y="54" width="210" height="26" as="geometry"/>
                </mxCell>
                <mxCell id="110" value="+ name: String" style="text;strokeColor=none;fillColor=none;align=left;verticalAlign=top;spacingLeft=4;spacingRight=4;overflow=hidden;rotatable=0;points=[[0,0.5],[1,0.5]];portConstraint=eastwest;" parent="108" vertex="1">
                    <mxGeometry y="80" width="210" height="26" as="geometry"/>
                </mxCell>
                <mxCell id="111" value="+ phone: String" style="text;strokeColor=none;fillColor=none;align=left;verticalAlign=top;spacingLeft=4;spacingRight=4;overflow=hidden;rotatable=0;points=[[0,0.5],[1,0.5]];portConstraint=eastwest;" parent="108" vertex="1">
                    <mxGeometry y="106" width="210" height="26" as="geometry"/>
                </mxCell>
                <mxCell id="117" value="" style="line;strokeWidth=1;fillColor=none;align=left;verticalAlign=middle;spacingTop=-1;spacingLeft=3;spacingRight=3;rotatable=0;labelPosition=right;points=[];portConstraint=eastwest;" parent="108" vertex="1">
                    <mxGeometry y="132" width="210" height="8" as="geometry"/>
                </mxCell>
                <mxCell id="118" value="&lt;&lt;Model&gt;&gt;::Chats" style="swimlane;fontStyle=1;align=center;verticalAlign=top;childLayout=stackLayout;horizontal=1;startSize=28;horizontalStack=0;resizeParent=1;resizeParentMax=0;resizeLast=0;collapsible=1;marginBottom=0;autosize=1;container=1;resizeWidth=1;resizeHeight=1;" parent="1" vertex="1">
                    <mxGeometry x="-80" y="770" width="210" height="166" as="geometry">
                        <mxRectangle x="-810" y="250" width="90" height="26" as="alternateBounds"/>
                    </mxGeometry>
                </mxCell>
                <mxCell id="119" value="+ customerId: String" style="text;strokeColor=none;fillColor=none;align=left;verticalAlign=top;spacingLeft=4;spacingRight=4;overflow=hidden;rotatable=0;points=[[0,0.5],[1,0.5]];portConstraint=eastwest;" parent="118" vertex="1">
                    <mxGeometry y="28" width="210" height="26" as="geometry"/>
                </mxCell>
                <mxCell id="120" value="+ sellerId: String" style="text;strokeColor=none;fillColor=none;align=left;verticalAlign=top;spacingLeft=4;spacingRight=4;overflow=hidden;rotatable=0;points=[[0,0.5],[1,0.5]];portConstraint=eastwest;" parent="118" vertex="1">
                    <mxGeometry y="54" width="210" height="26" as="geometry"/>
                </mxCell>
                <mxCell id="124" value="+ itemId: String" style="text;strokeColor=none;fillColor=none;align=left;verticalAlign=top;spacingLeft=4;spacingRight=4;overflow=hidden;rotatable=0;points=[[0,0.5],[1,0.5]];portConstraint=eastwest;" parent="118" vertex="1">
                    <mxGeometry y="80" width="210" height="26" as="geometry"/>
                </mxCell>
                <mxCell id="121" value="+ message: String" style="text;strokeColor=none;fillColor=none;align=left;verticalAlign=top;spacingLeft=4;spacingRight=4;overflow=hidden;rotatable=0;points=[[0,0.5],[1,0.5]];portConstraint=eastwest;" parent="118" vertex="1">
                    <mxGeometry y="106" width="210" height="26" as="geometry"/>
                </mxCell>
                <mxCell id="122" value="+ time: Timestamp" style="text;strokeColor=none;fillColor=none;align=left;verticalAlign=top;spacingLeft=4;spacingRight=4;overflow=hidden;rotatable=0;points=[[0,0.5],[1,0.5]];portConstraint=eastwest;" parent="118" vertex="1">
                    <mxGeometry y="132" width="210" height="26" as="geometry"/>
                </mxCell>
                <mxCell id="123" value="" style="line;strokeWidth=1;fillColor=none;align=left;verticalAlign=middle;spacingTop=-1;spacingLeft=3;spacingRight=3;rotatable=0;labelPosition=right;points=[];portConstraint=eastwest;" parent="118" vertex="1">
                    <mxGeometry y="158" width="210" height="8" as="geometry"/>
                </mxCell>
                <mxCell id="126" value="&lt;&lt;View&gt;&gt;::ChatPage" style="swimlane;fontStyle=1;align=center;verticalAlign=top;childLayout=stackLayout;horizontal=1;startSize=28;horizontalStack=0;resizeParent=1;resizeParentMax=0;resizeLast=0;collapsible=1;marginBottom=0;autosize=1;container=1;resizeWidth=1;resizeHeight=1;" parent="1" vertex="1">
                    <mxGeometry x="-810" y="920" width="280" height="448" as="geometry">
                        <mxRectangle x="-810" y="250" width="90" height="26" as="alternateBounds"/>
                    </mxGeometry>
                </mxCell>
                <mxCell id="127" value="+ product: String" style="text;strokeColor=none;fillColor=none;align=left;verticalAlign=top;spacingLeft=4;spacingRight=4;overflow=hidden;rotatable=0;points=[[0,0.5],[1,0.5]];portConstraint=eastwest;" parent="126" vertex="1">
                    <mxGeometry y="28" width="280" height="26" as="geometry"/>
                </mxCell>
                <mxCell id="135" value="+ currentUser: String" style="text;strokeColor=none;fillColor=none;align=left;verticalAlign=top;spacingLeft=4;spacingRight=4;overflow=hidden;rotatable=0;points=[[0,0.5],[1,0.5]];portConstraint=eastwest;" parent="126" vertex="1">
                    <mxGeometry y="54" width="280" height="26" as="geometry"/>
                </mxCell>
                <mxCell id="128" value="+ chats:  Array" style="text;strokeColor=none;fillColor=none;align=left;verticalAlign=top;spacingLeft=4;spacingRight=4;overflow=hidden;rotatable=0;points=[[0,0.5],[1,0.5]];portConstraint=eastwest;" parent="126" vertex="1">
                    <mxGeometry y="80" width="280" height="26" as="geometry"/>
                </mxCell>
                <mxCell id="137" value="+ chatList:  Array" style="text;strokeColor=none;fillColor=none;align=left;verticalAlign=top;spacingLeft=4;spacingRight=4;overflow=hidden;rotatable=0;points=[[0,0.5],[1,0.5]];portConstraint=eastwest;" parent="126" vertex="1">
                    <mxGeometry y="106" width="280" height="26" as="geometry"/>
                </mxCell>
                <mxCell id="138" value="+ message:  String" style="text;strokeColor=none;fillColor=none;align=left;verticalAlign=top;spacingLeft=4;spacingRight=4;overflow=hidden;rotatable=0;points=[[0,0.5],[1,0.5]];portConstraint=eastwest;" parent="126" vertex="1">
                    <mxGeometry y="132" width="280" height="26" as="geometry"/>
                </mxCell>
                <mxCell id="139" value="+ selectedChat:  String" style="text;strokeColor=none;fillColor=none;align=left;verticalAlign=top;spacingLeft=4;spacingRight=4;overflow=hidden;rotatable=0;points=[[0,0.5],[1,0.5]];portConstraint=eastwest;" parent="126" vertex="1">
                    <mxGeometry y="158" width="280" height="26" as="geometry"/>
                </mxCell>
                <mxCell id="129" value="" style="line;strokeWidth=1;fillColor=none;align=left;verticalAlign=middle;spacingTop=-1;spacingLeft=3;spacingRight=3;rotatable=0;labelPosition=right;points=[];portConstraint=eastwest;" parent="126" vertex="1">
                    <mxGeometry y="184" width="280" height="8" as="geometry"/>
                </mxCell>
                <mxCell id="130" value="- setProduct(product)&#10;" style="text;strokeColor=none;fillColor=none;align=left;verticalAlign=top;spacingLeft=4;spacingRight=4;overflow=hidden;rotatable=0;points=[[0,0.5],[1,0.5]];portConstraint=eastwest;whiteSpace=wrap;imageHeight=24;snapToPoint=0;autosize=0;" parent="126" vertex="1">
                    <mxGeometry y="192" width="280" height="30" as="geometry"/>
                </mxCell>
                <mxCell id="131" value="- setCurrentUser(currentUser)" style="text;strokeColor=none;fillColor=none;align=left;verticalAlign=top;spacingLeft=4;spacingRight=4;overflow=hidden;rotatable=0;points=[[0,0.5],[1,0.5]];portConstraint=eastwest;whiteSpace=wrap;imageHeight=24;snapToPoint=0;autosize=0;" parent="126" vertex="1">
                    <mxGeometry y="222" width="280" height="26" as="geometry"/>
                </mxCell>
                <mxCell id="140" value="- setChats(chats)" style="text;strokeColor=none;fillColor=none;align=left;verticalAlign=top;spacingLeft=4;spacingRight=4;overflow=hidden;rotatable=0;points=[[0,0.5],[1,0.5]];portConstraint=eastwest;whiteSpace=wrap;imageHeight=24;snapToPoint=0;autosize=0;" parent="126" vertex="1">
                    <mxGeometry y="248" width="280" height="26" as="geometry"/>
                </mxCell>
                <mxCell id="141" value="- setChatList(chatList)" style="text;strokeColor=none;fillColor=none;align=left;verticalAlign=top;spacingLeft=4;spacingRight=4;overflow=hidden;rotatable=0;points=[[0,0.5],[1,0.5]];portConstraint=eastwest;whiteSpace=wrap;imageHeight=24;snapToPoint=0;autosize=0;" parent="126" vertex="1">
                    <mxGeometry y="274" width="280" height="26" as="geometry"/>
                </mxCell>
                <mxCell id="142" value="- setMessage(message)" style="text;strokeColor=none;fillColor=none;align=left;verticalAlign=top;spacingLeft=4;spacingRight=4;overflow=hidden;rotatable=0;points=[[0,0.5],[1,0.5]];portConstraint=eastwest;whiteSpace=wrap;imageHeight=24;snapToPoint=0;autosize=0;" parent="126" vertex="1">
                    <mxGeometry y="300" width="280" height="26" as="geometry"/>
                </mxCell>
                <mxCell id="143" value="- setSelectedChat(selectedChat)" style="text;strokeColor=none;fillColor=none;align=left;verticalAlign=top;spacingLeft=4;spacingRight=4;overflow=hidden;rotatable=0;points=[[0,0.5],[1,0.5]];portConstraint=eastwest;whiteSpace=wrap;imageHeight=24;snapToPoint=0;autosize=0;" parent="126" vertex="1">
                    <mxGeometry y="326" width="280" height="26" as="geometry"/>
                </mxCell>
                <mxCell id="133" value="- fetchCurrentUser()" style="text;strokeColor=none;fillColor=none;align=left;verticalAlign=top;spacingLeft=4;spacingRight=4;overflow=hidden;rotatable=0;points=[[0,0.5],[1,0.5]];portConstraint=eastwest;whiteSpace=wrap;imageHeight=24;snapToPoint=0;autosize=0;" parent="126" vertex="1">
                    <mxGeometry y="352" width="280" height="26" as="geometry"/>
                </mxCell>
                <mxCell id="134" value="- getChatsByUserId(userId)" style="text;strokeColor=none;fillColor=none;align=left;verticalAlign=top;spacingLeft=4;spacingRight=4;overflow=hidden;rotatable=0;points=[[0,0.5],[1,0.5]];portConstraint=eastwest;whiteSpace=wrap;imageHeight=24;snapToPoint=0;autosize=0;" parent="126" vertex="1">
                    <mxGeometry y="378" width="280" height="26" as="geometry"/>
                </mxCell>
                <mxCell id="144" value="- sendChat(customerId, sellerId, itemId, message, time)" style="text;strokeColor=none;fillColor=none;align=left;verticalAlign=top;spacingLeft=4;spacingRight=4;overflow=hidden;rotatable=0;points=[[0,0.5],[1,0.5]];portConstraint=eastwest;whiteSpace=wrap;imageHeight=24;snapToPoint=0;autosize=0;" parent="126" vertex="1">
                    <mxGeometry y="404" width="280" height="44" as="geometry"/>
                </mxCell>
                <mxCell id="153" style="edgeStyle=orthogonalEdgeStyle;html=1;exitX=0;exitY=0.5;exitDx=0;exitDy=0;entryX=0;entryY=0.5;entryDx=0;entryDy=0;endArrow=none;endFill=0;" parent="1" source="6" target="82" edge="1">
                    <mxGeometry relative="1" as="geometry">
                        <Array as="points">
                            <mxPoint x="-470" y="161"/>
                            <mxPoint x="-470" y="505"/>
                        </Array>
                    </mxGeometry>
                </mxCell>
                <mxCell id="155" style="edgeStyle=orthogonalEdgeStyle;html=1;exitX=1;exitY=0.5;exitDx=0;exitDy=0;endArrow=none;endFill=0;" parent="1" source="15" target="86" edge="1">
                    <mxGeometry relative="1" as="geometry"/>
                </mxCell>
                <mxCell id="156" style="edgeStyle=orthogonalEdgeStyle;html=1;exitX=1;exitY=0.5;exitDx=0;exitDy=0;endArrow=none;endFill=0;" parent="1" source="17" target="87" edge="1">
                    <mxGeometry relative="1" as="geometry"/>
                </mxCell>
                <mxCell id="157" style="edgeStyle=orthogonalEdgeStyle;html=1;exitX=1;exitY=0.5;exitDx=0;exitDy=0;endArrow=none;endFill=0;" parent="1" source="26" target="83" edge="1">
                    <mxGeometry relative="1" as="geometry"/>
                </mxCell>
                <mxCell id="158" style="edgeStyle=orthogonalEdgeStyle;html=1;exitX=1;exitY=0.5;exitDx=0;exitDy=0;endArrow=none;endFill=0;" parent="1" source="35" target="88" edge="1">
                    <mxGeometry relative="1" as="geometry"/>
                </mxCell>
                <mxCell id="159" style="edgeStyle=orthogonalEdgeStyle;html=1;exitX=1;exitY=0.5;exitDx=0;exitDy=0;endArrow=none;endFill=0;" parent="1" source="36" target="89" edge="1">
                    <mxGeometry relative="1" as="geometry"/>
                </mxCell>
                <mxCell id="160" style="edgeStyle=orthogonalEdgeStyle;html=1;exitX=1;exitY=0.5;exitDx=0;exitDy=0;entryX=0;entryY=0.5;entryDx=0;entryDy=0;endArrow=none;endFill=0;" parent="1" source="133" target="78" edge="1">
                    <mxGeometry relative="1" as="geometry"/>
                </mxCell>
                <mxCell id="161" style="edgeStyle=orthogonalEdgeStyle;html=1;exitX=1;exitY=0.5;exitDx=0;exitDy=0;endArrow=none;endFill=0;" parent="1" source="134" target="125" edge="1">
                    <mxGeometry relative="1" as="geometry"/>
                </mxCell>
                <mxCell id="163" style="edgeStyle=orthogonalEdgeStyle;html=1;exitX=1;exitY=0.5;exitDx=0;exitDy=0;endArrow=none;endFill=0;" parent="1" source="144" target="162" edge="1">
                    <mxGeometry relative="1" as="geometry"/>
                </mxCell>
                <mxCell id="165" style="edgeStyle=orthogonalEdgeStyle;html=1;exitX=1;exitY=0.5;exitDx=0;exitDy=0;entryX=1;entryY=0.5;entryDx=0;entryDy=0;endArrow=none;endFill=0;" parent="1" source="47" target="76" edge="1">
                    <mxGeometry relative="1" as="geometry"/>
                </mxCell>
                <mxCell id="166" style="edgeStyle=orthogonalEdgeStyle;html=1;exitX=1;exitY=0.5;exitDx=0;exitDy=0;entryX=1;entryY=0.5;entryDx=0;entryDy=0;endArrow=none;endFill=0;" parent="1" source="48" target="78" edge="1">
                    <mxGeometry relative="1" as="geometry"/>
                </mxCell>
                <mxCell id="167" style="edgeStyle=orthogonalEdgeStyle;html=1;exitX=1;exitY=0.5;exitDx=0;exitDy=0;endArrow=none;endFill=0;" parent="1" source="75" target="112" edge="1">
                    <mxGeometry relative="1" as="geometry"/>
                </mxCell>
                <mxCell id="170" style="edgeStyle=orthogonalEdgeStyle;html=1;exitX=1;exitY=0.5;exitDx=0;exitDy=0;endArrow=none;endFill=0;" parent="1" source="79" target="109" edge="1">
                    <mxGeometry relative="1" as="geometry"/>
                </mxCell>
                <mxCell id="174" style="edgeStyle=orthogonalEdgeStyle;html=1;exitX=1;exitY=0.5;exitDx=0;exitDy=0;entryX=0;entryY=0.5;entryDx=0;entryDy=0;endArrow=none;endFill=0;" parent="1" source="82" target="95" edge="1">
                    <mxGeometry relative="1" as="geometry"/>
                </mxCell>
                <mxCell id="177" style="edgeStyle=orthogonalEdgeStyle;html=1;exitX=1;exitY=0.5;exitDx=0;exitDy=0;endArrow=none;endFill=0;" parent="1" source="83" target="105" edge="1">
                    <mxGeometry relative="1" as="geometry"/>
                </mxCell>
                <mxCell id="178" style="edgeStyle=orthogonalEdgeStyle;html=1;exitX=1;exitY=0.5;exitDx=0;exitDy=0;endArrow=none;endFill=0;" parent="1" source="84" target="106" edge="1">
                    <mxGeometry relative="1" as="geometry"/>
                </mxCell>
                <mxCell id="179" style="edgeStyle=orthogonalEdgeStyle;html=1;exitX=1;exitY=0.5;exitDx=0;exitDy=0;entryX=0;entryY=0.5;entryDx=0;entryDy=0;endArrow=none;endFill=0;" parent="1" source="85" target="95" edge="1">
                    <mxGeometry relative="1" as="geometry"/>
                </mxCell>
                <mxCell id="180" style="edgeStyle=orthogonalEdgeStyle;html=1;exitX=1;exitY=0.5;exitDx=0;exitDy=0;endArrow=none;endFill=0;" parent="1" edge="1">
                    <mxGeometry relative="1" as="geometry">
                        <mxPoint x="-80" y="102" as="targetPoint"/>
                        <mxPoint x="-160.00000000000045" y="600.9999999999998" as="sourcePoint"/>
                        <Array as="points">
                            <mxPoint x="-160" y="591"/>
                            <mxPoint x="-100" y="591"/>
                            <mxPoint x="-100" y="102"/>
                        </Array>
                    </mxGeometry>
                </mxCell>
                <mxCell id="182" style="edgeStyle=orthogonalEdgeStyle;html=1;exitX=1;exitY=0.5;exitDx=0;exitDy=0;entryX=0;entryY=0.5;entryDx=0;entryDy=0;endArrow=none;endFill=0;" parent="1" source="88" target="95" edge="1">
                    <mxGeometry relative="1" as="geometry"/>
                </mxCell>
                <mxCell id="184" style="edgeStyle=orthogonalEdgeStyle;html=1;exitX=1;exitY=0.5;exitDx=0;exitDy=0;entryX=0;entryY=0.5;entryDx=0;entryDy=0;endArrow=none;endFill=0;" parent="1" source="89" target="95" edge="1">
                    <mxGeometry relative="1" as="geometry"/>
                </mxCell>
                <mxCell id="185" style="edgeStyle=orthogonalEdgeStyle;html=1;exitX=1;exitY=0.5;exitDx=0;exitDy=0;endArrow=none;endFill=0;" parent="1" source="125" target="119" edge="1">
                    <mxGeometry relative="1" as="geometry"/>
                </mxCell>
                <mxCell id="186" style="edgeStyle=orthogonalEdgeStyle;html=1;exitX=1;exitY=0.5;exitDx=0;exitDy=0;endArrow=none;endFill=0;" parent="1" source="125" target="120" edge="1">
                    <mxGeometry relative="1" as="geometry"/>
                </mxCell>
                <mxCell id="191" value="1" style="text;align=center;fontStyle=1;verticalAlign=middle;spacingLeft=3;spacingRight=3;strokeColor=none;rotatable=0;points=[[0,0.5],[1,0.5]];portConstraint=eastwest;" vertex="1" parent="1">
                    <mxGeometry x="-530" y="217" width="25" height="26" as="geometry"/>
                </mxCell>
                <mxCell id="192" value="1" style="text;align=center;fontStyle=1;verticalAlign=middle;spacingLeft=3;spacingRight=3;strokeColor=none;rotatable=0;points=[[0,0.5],[1,0.5]];portConstraint=eastwest;" vertex="1" parent="1">
                    <mxGeometry x="-530" y="243" width="25" height="26" as="geometry"/>
                </mxCell>
                <mxCell id="193" value="1" style="text;align=center;fontStyle=1;verticalAlign=middle;spacingLeft=3;spacingRight=3;strokeColor=none;rotatable=0;points=[[0,0.5],[1,0.5]];portConstraint=eastwest;" vertex="1" parent="1">
                    <mxGeometry x="-530" y="582" width="25" height="26" as="geometry"/>
                </mxCell>
                <mxCell id="194" value="1" style="text;align=center;fontStyle=1;verticalAlign=middle;spacingLeft=3;spacingRight=3;strokeColor=none;rotatable=0;points=[[0,0.5],[1,0.5]];portConstraint=eastwest;" vertex="1" parent="1">
                    <mxGeometry x="-530" y="608" width="25" height="26" as="geometry"/>
                </mxCell>
                <mxCell id="195" value="1" style="text;align=center;fontStyle=1;verticalAlign=middle;spacingLeft=3;spacingRight=3;strokeColor=none;rotatable=0;points=[[0,0.5],[1,0.5]];portConstraint=eastwest;" vertex="1" parent="1">
                    <mxGeometry x="-530" y="634" width="25" height="26" as="geometry"/>
                </mxCell>
                <mxCell id="196" value="1" style="text;align=center;fontStyle=1;verticalAlign=middle;spacingLeft=3;spacingRight=3;strokeColor=none;rotatable=0;points=[[0,0.5],[1,0.5]];portConstraint=eastwest;" vertex="1" parent="1">
                    <mxGeometry x="-528" y="1258" width="25" height="26" as="geometry"/>
                </mxCell>
                <mxCell id="197" value="1" style="text;align=center;fontStyle=1;verticalAlign=middle;spacingLeft=3;spacingRight=3;strokeColor=none;rotatable=0;points=[[0,0.5],[1,0.5]];portConstraint=eastwest;" vertex="1" parent="1">
                    <mxGeometry x="-529" y="1284" width="25" height="26" as="geometry"/>
                </mxCell>
                <mxCell id="198" value="1" style="text;align=center;fontStyle=1;verticalAlign=middle;spacingLeft=3;spacingRight=3;strokeColor=none;rotatable=0;points=[[0,0.5],[1,0.5]];portConstraint=eastwest;" vertex="1" parent="1">
                    <mxGeometry x="-530" y="1319" width="25" height="26" as="geometry"/>
                </mxCell>
                <mxCell id="199" value="1" style="text;align=center;fontStyle=1;verticalAlign=middle;spacingLeft=3;spacingRight=3;strokeColor=none;rotatable=0;points=[[0,0.5],[1,0.5]];portConstraint=eastwest;" vertex="1" parent="1">
                    <mxGeometry x="-457" y="374" width="25" height="26" as="geometry"/>
                </mxCell>
                <mxCell id="202" value="1..*" style="text;align=center;fontStyle=1;verticalAlign=middle;spacingLeft=3;spacingRight=3;strokeColor=none;rotatable=0;points=[[0,0.5],[1,0.5]];portConstraint=eastwest;" vertex="1" parent="1">
                    <mxGeometry x="-465" y="478" width="25" height="26" as="geometry"/>
                </mxCell>
                <mxCell id="204" value="1..*" style="text;align=center;fontStyle=1;verticalAlign=middle;spacingLeft=3;spacingRight=3;strokeColor=none;rotatable=0;points=[[0,0.5],[1,0.5]];portConstraint=eastwest;" vertex="1" parent="1">
                    <mxGeometry x="-465" y="508" width="25" height="26" as="geometry"/>
                </mxCell>
                <mxCell id="205" value="1..*" style="text;align=center;fontStyle=1;verticalAlign=middle;spacingLeft=3;spacingRight=3;strokeColor=none;rotatable=0;points=[[0,0.5],[1,0.5]];portConstraint=eastwest;" vertex="1" parent="1">
                    <mxGeometry x="-465" y="586" width="25" height="26" as="geometry"/>
                </mxCell>
                <mxCell id="206" value="1..*" style="text;align=center;fontStyle=1;verticalAlign=middle;spacingLeft=3;spacingRight=3;strokeColor=none;rotatable=0;points=[[0,0.5],[1,0.5]];portConstraint=eastwest;" vertex="1" parent="1">
                    <mxGeometry x="-465" y="612" width="25" height="26" as="geometry"/>
                </mxCell>
                <mxCell id="207" value="1" style="text;align=center;fontStyle=1;verticalAlign=middle;spacingLeft=3;spacingRight=3;strokeColor=none;rotatable=0;points=[[0,0.5],[1,0.5]];portConstraint=eastwest;" vertex="1" parent="1">
                    <mxGeometry x="-465" y="639" width="25" height="26" as="geometry"/>
                </mxCell>
                <mxCell id="208" value="1" style="text;align=center;fontStyle=1;verticalAlign=middle;spacingLeft=3;spacingRight=3;strokeColor=none;rotatable=0;points=[[0,0.5],[1,0.5]];portConstraint=eastwest;" vertex="1" parent="1">
                    <mxGeometry x="-465" y="665" width="25" height="26" as="geometry"/>
                </mxCell>
                <mxCell id="209" value="1..*" style="text;align=center;fontStyle=1;verticalAlign=middle;spacingLeft=3;spacingRight=3;strokeColor=none;rotatable=0;points=[[0,0.5],[1,0.5]];portConstraint=eastwest;" vertex="1" parent="1">
                    <mxGeometry x="-465" y="739" width="25" height="26" as="geometry"/>
                </mxCell>
                <mxCell id="210" value="1" style="text;align=center;fontStyle=1;verticalAlign=middle;spacingLeft=3;spacingRight=3;strokeColor=none;rotatable=0;points=[[0,0.5],[1,0.5]];portConstraint=eastwest;" vertex="1" parent="1">
                    <mxGeometry x="-465" y="774" width="25" height="26" as="geometry"/>
                </mxCell>
                <mxCell id="212" value="1" style="text;align=center;fontStyle=1;verticalAlign=middle;spacingLeft=3;spacingRight=3;strokeColor=none;rotatable=0;points=[[0,0.5],[1,0.5]];portConstraint=eastwest;" vertex="1" parent="1">
                    <mxGeometry x="-465" y="134" width="25" height="26" as="geometry"/>
                </mxCell>
                <mxCell id="213" value="1" style="text;align=center;fontStyle=1;verticalAlign=middle;spacingLeft=3;spacingRight=3;strokeColor=none;rotatable=0;points=[[0,0.5],[1,0.5]];portConstraint=eastwest;" vertex="1" parent="1">
                    <mxGeometry x="-105" y="75" width="25" height="26" as="geometry"/>
                </mxCell>
                <mxCell id="214" style="edgeStyle=orthogonalEdgeStyle;html=1;exitX=0;exitY=0.5;exitDx=0;exitDy=0;entryX=1;entryY=0.5;entryDx=0;entryDy=0;endArrow=none;endFill=0;" edge="1" parent="1" source="61" target="75">
                    <mxGeometry relative="1" as="geometry"/>
                </mxCell>
                <mxCell id="215" value="1" style="text;align=center;fontStyle=1;verticalAlign=middle;spacingLeft=3;spacingRight=3;strokeColor=none;rotatable=0;points=[[0,0.5],[1,0.5]];portConstraint=eastwest;" vertex="1" parent="1">
                    <mxGeometry x="-102" y="207" width="25" height="26" as="geometry"/>
                </mxCell>
                <mxCell id="216" value="1" style="text;align=center;fontStyle=1;verticalAlign=middle;spacingLeft=3;spacingRight=3;strokeColor=none;rotatable=0;points=[[0,0.5],[1,0.5]];portConstraint=eastwest;" vertex="1" parent="1">
                    <mxGeometry x="-102" y="233" width="25" height="26" as="geometry"/>
                </mxCell>
                <mxCell id="217" value="1" style="text;align=center;fontStyle=1;verticalAlign=middle;spacingLeft=3;spacingRight=3;strokeColor=none;rotatable=0;points=[[0,0.5],[1,0.5]];portConstraint=eastwest;" vertex="1" parent="1">
                    <mxGeometry x="-102" y="563" width="25" height="26" as="geometry"/>
                </mxCell>
                <mxCell id="218" value="1" style="text;align=center;fontStyle=1;verticalAlign=middle;spacingLeft=3;spacingRight=3;strokeColor=none;rotatable=0;points=[[0,0.5],[1,0.5]];portConstraint=eastwest;" vertex="1" parent="1">
                    <mxGeometry x="-102" y="589" width="25" height="26" as="geometry"/>
                </mxCell>
                <mxCell id="219" value="1" style="text;align=center;fontStyle=1;verticalAlign=middle;spacingLeft=3;spacingRight=3;strokeColor=none;rotatable=0;points=[[0,0.5],[1,0.5]];portConstraint=eastwest;" vertex="1" parent="1">
                    <mxGeometry x="-165" y="298" width="25" height="26" as="geometry"/>
                </mxCell>
                <mxCell id="220" value="1" style="text;align=center;fontStyle=1;verticalAlign=middle;spacingLeft=3;spacingRight=3;strokeColor=none;rotatable=0;points=[[0,0.5],[1,0.5]];portConstraint=eastwest;" vertex="1" parent="1">
                    <mxGeometry x="-165" y="327" width="25" height="26" as="geometry"/>
                </mxCell>
                <mxCell id="221" value="1" style="text;align=center;fontStyle=1;verticalAlign=middle;spacingLeft=3;spacingRight=3;strokeColor=none;rotatable=0;points=[[0,0.5],[1,0.5]];portConstraint=eastwest;" vertex="1" parent="1">
                    <mxGeometry x="-156" y="386" width="25" height="26" as="geometry"/>
                </mxCell>
                <mxCell id="222" value="1" style="text;align=center;fontStyle=1;verticalAlign=middle;spacingLeft=3;spacingRight=3;strokeColor=none;rotatable=0;points=[[0,0.5],[1,0.5]];portConstraint=eastwest;" vertex="1" parent="1">
                    <mxGeometry x="-156" y="421" width="25" height="26" as="geometry"/>
                </mxCell>
                <mxCell id="223" value="1" style="text;align=center;fontStyle=1;verticalAlign=middle;spacingLeft=3;spacingRight=3;strokeColor=none;rotatable=0;points=[[0,0.5],[1,0.5]];portConstraint=eastwest;" vertex="1" parent="1">
                    <mxGeometry x="-156" y="478" width="25" height="26" as="geometry"/>
                </mxCell>
                <mxCell id="224" value="1" style="text;align=center;fontStyle=1;verticalAlign=middle;spacingLeft=3;spacingRight=3;strokeColor=none;rotatable=0;points=[[0,0.5],[1,0.5]];portConstraint=eastwest;" vertex="1" parent="1">
                    <mxGeometry x="-156" y="504" width="25" height="26" as="geometry"/>
                </mxCell>
                <mxCell id="225" value="1" style="text;align=center;fontStyle=1;verticalAlign=middle;spacingLeft=3;spacingRight=3;strokeColor=none;rotatable=0;points=[[0,0.5],[1,0.5]];portConstraint=eastwest;" vertex="1" parent="1">
                    <mxGeometry x="-156" y="530" width="25" height="26" as="geometry"/>
                </mxCell>
                <mxCell id="226" value="1" style="text;align=center;fontStyle=1;verticalAlign=middle;spacingLeft=3;spacingRight=3;strokeColor=none;rotatable=0;points=[[0,0.5],[1,0.5]];portConstraint=eastwest;" vertex="1" parent="1">
                    <mxGeometry x="-156" y="556" width="25" height="26" as="geometry"/>
                </mxCell>
                <mxCell id="227" value="1" style="text;align=center;fontStyle=1;verticalAlign=middle;spacingLeft=3;spacingRight=3;strokeColor=none;rotatable=0;points=[[0,0.5],[1,0.5]];portConstraint=eastwest;" vertex="1" parent="1">
                    <mxGeometry x="-156" y="586" width="25" height="26" as="geometry"/>
                </mxCell>
                <mxCell id="228" value="1" style="text;align=center;fontStyle=1;verticalAlign=middle;spacingLeft=3;spacingRight=3;strokeColor=none;rotatable=0;points=[[0,0.5],[1,0.5]];portConstraint=eastwest;" vertex="1" parent="1">
                    <mxGeometry x="-156" y="639" width="25" height="26" as="geometry"/>
                </mxCell>
                <mxCell id="229" value="1" style="text;align=center;fontStyle=1;verticalAlign=middle;spacingLeft=3;spacingRight=3;strokeColor=none;rotatable=0;points=[[0,0.5],[1,0.5]];portConstraint=eastwest;" vertex="1" parent="1">
                    <mxGeometry x="-156" y="665" width="25" height="26" as="geometry"/>
                </mxCell>
                <mxCell id="230" value="1" style="text;align=center;fontStyle=1;verticalAlign=middle;spacingLeft=3;spacingRight=3;strokeColor=none;rotatable=0;points=[[0,0.5],[1,0.5]];portConstraint=eastwest;" vertex="1" parent="1">
                    <mxGeometry x="-156" y="742" width="25" height="26" as="geometry"/>
                </mxCell>
                <mxCell id="231" value="1" style="text;align=center;fontStyle=1;verticalAlign=middle;spacingLeft=3;spacingRight=3;strokeColor=none;rotatable=0;points=[[0,0.5],[1,0.5]];portConstraint=eastwest;" vertex="1" parent="1">
                    <mxGeometry x="-102" y="787" width="25" height="26" as="geometry"/>
                </mxCell>
                <mxCell id="232" value="1" style="text;align=center;fontStyle=1;verticalAlign=middle;spacingLeft=3;spacingRight=3;strokeColor=none;rotatable=0;points=[[0,0.5],[1,0.5]];portConstraint=eastwest;" vertex="1" parent="1">
                    <mxGeometry x="-102" y="813" width="25" height="26" as="geometry"/>
                </mxCell>
                <mxCell id="233" value="1" style="text;align=center;fontStyle=1;verticalAlign=middle;spacingLeft=3;spacingRight=3;strokeColor=none;rotatable=0;points=[[0,0.5],[1,0.5]];portConstraint=eastwest;" vertex="1" parent="1">
                    <mxGeometry x="-156" y="1021" width="25" height="26" as="geometry"/>
                </mxCell>
                <mxCell id="234" value="1" style="text;align=center;fontStyle=1;verticalAlign=middle;spacingLeft=3;spacingRight=3;strokeColor=none;rotatable=0;points=[[0,0.5],[1,0.5]];portConstraint=eastwest;" vertex="1" parent="1">
                    <mxGeometry x="-156" y="1055" width="25" height="26" as="geometry"/>
                </mxCell>
                <mxCell id="235" value="1" style="text;align=center;fontStyle=1;verticalAlign=middle;spacingLeft=3;spacingRight=3;strokeColor=none;rotatable=0;points=[[0,0.5],[1,0.5]];portConstraint=eastwest;" vertex="1" parent="1">
                    <mxGeometry x="-102" y="1247" width="25" height="26" as="geometry"/>
                </mxCell>
            </root>
        </mxGraphModel>
    </diagram>
</mxfile>